<?xml version="1.0" standalone="no"?>
<!DOCTYPE svg PUBLIC "-//W3C//DTD SVG 20010904//EN"
 "http://www.w3.org/TR/2001/REC-SVG-20010904/DTD/svg10.dtd">
<svg version="1.0" xmlns="http://www.w3.org/2000/svg"
 width="1701.000000pt" height="400.000000pt" viewBox="0 0 1701.000000 400.000000"
 preserveAspectRatio="xMidYMid meet">

<g transform="translate(0.000000,400.000000) scale(0.100000,-0.100000)"
fill="#000000" stroke="none">
<path d="M580 1995 l0 -635 160 0 160 0 0 215 0 215 27 41 c14 22 31 38 37 36
6 -2 87 -117 180 -255 l170 -252 188 0 c103 0 188 2 188 5 0 2 -104 153 -230
335 -127 181 -230 335 -230 341 0 6 37 59 82 117 46 59 145 188 221 287 l139
180 -173 3 c-95 1 -178 1 -184 -2 -5 -2 -100 -128 -210 -281 l-200 -277 -3
281 -2 281 -160 0 -160 0 0 -635z"/>
<path d="M1810 1995 l-1 -635 151 0 150 0 0 417 c0 351 2 415 13 403 8 -8 44
-87 82 -175 37 -88 85 -202 107 -252 l41 -93 107 0 107 0 113 265 c62 146 117
265 122 265 4 0 8 -187 8 -415 l0 -415 155 0 155 0 0 635 0 635 -184 0 -183 0
-139 -310 c-77 -170 -143 -309 -147 -307 -4 1 -48 92 -97 202 -50 110 -112
247 -138 305 l-48 105 -187 3 -186 2 -1 -635z"/>
<path d="M4092 2479 c-240 -28 -420 -177 -477 -394 -19 -73 -19 -223 -1 -290
58 -215 199 -313 491 -340 72 -7 265 7 385 26 l67 11 7 177 c3 97 9 220 13
274 l6 97 -190 0 -190 0 -7 -31 c-3 -17 -6 -51 -6 -75 l0 -44 91 0 92 0 -7
-122 c-4 -67 -9 -125 -12 -129 -9 -16 -147 -32 -231 -27 -99 7 -160 28 -217
79 -126 110 -123 372 8 516 43 48 132 97 204 112 80 17 216 13 322 -9 52 -11
98 -20 103 -20 4 0 7 36 7 79 l0 79 -67 12 c-166 29 -265 34 -391 19z"/>
<path d="M8181 2479 c-248 -38 -412 -180 -461 -400 -18 -82 -9 -259 18 -327
95 -243 415 -360 734 -268 184 54 305 180 349 366 19 81 15 232 -9 306 -47
150 -174 266 -338 309 -75 19 -214 26 -293 14z m254 -178 c175 -78 236 -318
133 -521 -61 -119 -170 -176 -321 -168 -151 8 -251 74 -299 197 -30 79 -30
214 1 294 41 106 115 180 211 212 67 22 211 15 275 -14z"/>
<path d="M11109 2477 c-71 -16 -131 -55 -166 -109 -24 -36 -28 -52 -28 -113 0
-58 5 -81 28 -124 15 -29 27 -56 27 -60 0 -4 -34 -29 -74 -55 -112 -70 -163
-141 -173 -241 -12 -116 59 -238 166 -283 142 -62 332 -47 452 33 l52 36 47
-46 46 -46 110 3 109 3 -82 86 -82 85 24 51 c31 65 55 155 55 210 l0 43 -84 0
-83 0 -7 -52 c-9 -71 -17 -98 -26 -98 -13 0 -145 140 -204 216 -69 89 -99 149
-100 199 -2 88 62 131 179 122 38 -3 80 -9 93 -12 21 -7 22 -5 22 63 l0 70
-47 11 c-85 18 -195 21 -254 8z m-7 -586 c18 -21 69 -77 112 -125 78 -86 79
-86 60 -108 -54 -60 -193 -78 -275 -35 -24 13 -52 38 -62 55 -25 43 -24 114 1
154 22 34 99 97 119 98 6 0 26 -17 45 -39z"/>
<path d="M14543 2480 c-68 -13 -132 -43 -172 -82 -53 -52 -66 -85 -66 -169 0
-72 2 -80 37 -131 21 -29 79 -89 130 -133 160 -137 197 -176 207 -213 35 -124
-129 -180 -329 -113 -47 16 -86 28 -86 28 -1 -1 0 -43 3 -94 l6 -91 76 -10
c152 -21 199 -23 277 -13 178 25 274 118 274 267 0 92 -54 161 -257 328 -51
42 -99 89 -108 106 -34 66 -10 126 61 156 40 17 150 18 228 3 31 -7 58 -10 60
-8 1 2 1 36 -2 76 l-4 71 -62 11 c-94 16 -216 21 -273 11z"/>
<path d="M4806 2183 c-6 -264 -15 -451 -32 -640 l-6 -73 109 0 110 0 7 293 c3
160 9 349 13 420 l6 127 124 0 c137 0 176 -10 211 -55 26 -33 29 -102 7 -144
-35 -69 -104 -101 -217 -101 -38 0 -68 -2 -68 -4 0 -3 34 -73 77 -158 42 -84
97 -202 123 -263 l47 -110 116 -3 c65 -1 117 0 117 3 0 3 -40 76 -89 163 -94
166 -151 276 -151 289 0 5 29 17 65 27 118 34 193 123 202 241 7 85 -10 139
-61 189 -73 73 -100 79 -422 84 l-281 4 -7 -289z"/>
<path d="M5755 2333 c-3 -76 -11 -208 -16 -293 -19 -323 -10 -395 57 -464 77
-80 202 -119 374 -119 136 0 213 13 295 51 74 35 121 81 152 148 25 55 31 114
53 509 6 105 13 216 16 248 l6 58 -113 -3 -114 -3 -2 -75 c-4 -141 -24 -475
-33 -552 -20 -168 -101 -236 -269 -226 -131 8 -195 60 -210 173 -5 32 0 181
10 353 10 163 18 305 18 315 1 15 -11 17 -108 17 l-109 0 -7 -137z"/>
<path d="M6880 2328 c0 -156 -26 -747 -36 -815 l-6 -43 104 0 104 0 12 405 c7
223 15 412 18 419 7 18 153 30 218 17 30 -5 58 -19 75 -35 22 -23 26 -35 26
-85 0 -108 -69 -161 -208 -161 -71 0 -78 -2 -72 -17 3 -10 11 -41 17 -70 l10
-51 57 -7 c125 -14 259 31 330 111 108 123 100 331 -17 421 -60 46 -114 53
-387 53 l-245 0 0 -142z"/>
<path d="M9397 2463 c-3 -5 -6 -73 -6 -153 -2 -166 -17 -504 -31 -694 -6 -72
-10 -134 -10 -138 0 -4 51 -8 113 -8 l114 0 7 233 c6 225 19 486 32 675 l6 92
-110 0 c-61 0 -113 -3 -115 -7z"/>
<path d="M9925 2387 c-33 -45 -116 -151 -184 -236 -87 -108 -121 -158 -115
-167 5 -7 79 -113 165 -236 86 -123 164 -235 174 -250 l17 -28 129 0 c71 0
129 2 129 5 0 3 -69 95 -153 203 -247 318 -241 309 -224 336 9 13 95 118 191
234 97 117 176 214 176 217 0 3 -55 5 -122 4 l-123 0 -60 -82z"/>
<path d="M12266 2458 c-3 -7 -7 -65 -11 -128 -10 -195 -60 -774 -72 -833 l-5
-28 94 3 93 3 7 150 c12 255 39 610 46 617 8 8 59 -157 163 -527 l67 -240 101
-3 c62 -2 101 1 101 7 0 13 279 752 292 771 10 16 2 -631 -9 -727 l-6 -53 99
0 99 0 0 147 c0 82 3 307 8 501 l7 352 -144 0 -144 0 -12 -37 c-7 -21 -46
-121 -87 -223 -41 -102 -98 -246 -125 -320 -27 -74 -53 -139 -58 -144 -5 -5
-15 15 -24 45 -62 225 -93 330 -126 434 -22 66 -45 147 -53 180 l-14 60 -141
3 c-109 2 -143 0 -146 -10z"/>
<path d="M15656 2093 c-108 -208 -225 -433 -261 -500 l-66 -123 118 0 118 0
84 175 84 175 197 0 196 0 52 -147 c28 -82 55 -160 58 -175 l6 -28 114 0 c63
0 114 3 114 6 0 4 -54 153 -120 333 -66 179 -146 400 -178 491 l-58 165 -131
3 -131 3 -196 -378z m374 52 c29 -86 50 -158 48 -161 -3 -2 -66 -3 -140 -2
l-135 3 79 163 c43 89 82 160 87 158 4 -3 32 -75 61 -161z"/>
<path d="M1560 2220 c0 -5 5 -10 10 -10 6 0 15 -12 21 -26 7 -21 6 -31 -7 -45
-10 -11 -12 -19 -6 -19 6 0 19 11 30 25 25 31 18 63 -15 76 -30 11 -33 11 -33
-1z"/>
<path d="M1525 2206 c-14 -10 -20 -27 -21 -62 0 -27 2 -51 6 -54 20 -17 70
-111 64 -121 -4 -8 -3 -9 4 -5 6 4 26 -1 43 -10 26 -13 36 -14 55 -3 28 15 31
29 6 29 -10 0 -27 6 -37 14 -17 12 -18 16 -5 32 14 17 14 18 -2 5 -16 -12 -20
-10 -38 10 -20 23 -51 83 -64 122 -3 10 -1 27 4 38 13 23 10 24 -15 5z"/>
<path d="M1657 2089 c4 -14 8 -17 13 -9 4 7 14 16 21 21 10 6 6 9 -13 9 -22 0
-25 -4 -21 -21z"/>
<path d="M1457 2062 c-15 -15 -27 -40 -27 -53 0 -46 61 -79 110 -61 23 9 23 9
-8 15 -47 10 -80 85 -50 115 7 7 10 12 7 12 -3 0 -17 -13 -32 -28z"/>
<path d="M15067 1593 c-4 -38 -7 -80 -7 -95 l0 -28 100 0 100 0 0 28 c0 15 3
57 7 95 l6 67 -100 0 -100 0 -6 -67z"/>
<path d="M16587 1593 c-4 -38 -7 -80 -7 -95 l0 -28 100 0 100 0 0 28 c0 15 3
57 7 95 l6 67 -100 0 -100 0 -6 -67z"/>
<path d="M13545 1598 c-46 -130 -105 -302 -105 -304 0 -2 30 -2 67 -1 l67 2
69 115 c38 63 80 134 94 158 l25 42 -106 0 c-76 0 -108 -4 -111 -12z"/>
</g>
</svg>
